<svg xmlns="http://www.w3.org/2000/svg" width="1000" height="600" viewBox="0 0 1000 600">
  <defs>
    <linearGradient id="ideBg3" x1="0%" y1="0%" x2="100%" y2="100%">
      <stop offset="0%" style="stop-color:#1e1e1e"/>
      <stop offset="100%" style="stop-color:#2d2d2d"/>
    </linearGradient>
  </defs>

  <rect width="1000" height="600" rx="8" fill="url(#ideBg3)"/>

  <!-- Title Bar -->
  <rect x="0" y="0" width="1000" height="32" rx="8" fill="#3c3c3c"/>
  <circle cx="18" cy="16" r="6" fill="#ff5f57"/>
  <circle cx="38" cy="16" r="6" fill="#ffbd2e"/>
  <circle cx="58" cy="16" r="6" fill="#28c941"/>
  <text x="500" y="20" font-family="sans-serif" font-size="12" fill="#999" text-anchor="middle">TRAE IDE - 安全审查 & 测试通过</text>

  <!-- Activity Bar -->
  <rect x="0" y="32" width="48" height="568" fill="#333333"/>
  <rect x="8" y="128" width="32" height="32" rx="4" fill="#0e639c"/>
  <text x="24" y="148" font-family="sans-serif" font-size="14" fill="#fff" text-anchor="middle">🤖</text>

  <!-- Sidebar -->
  <rect x="48" y="32" width="180" height="568" fill="#252526"/>
  <text x="60" y="52" font-family="sans-serif" font-size="11" fill="#888">资源管理器</text>
  <text x="60" y="75" font-family="sans-serif" font-size="10" fill="#4fc1ff">▸ 📂 tests</text>
  <text x="72" y="93" font-family="sans-serif" font-size="10" fill="#888">  📂 unit</text>
  <text x="84" y="111" font-family="sans-serif" font-size="10" fill="#888">    📂 utils</text>
  <text x="96" y="129" font-family="sans-serif" font-size="10" fill="#608b4e">      📄 format.test.ts ●</text>
  <text x="96" y="147" font-family="sans-serif" font-size="10" fill="#608b4e">      📄 fundebug.test.ts ●</text>
  <text x="84" y="165" font-family="sans-serif" font-size="10" fill="#888">    📂 composables</text>
  <text x="96" y="183" font-family="sans-serif" font-size="10" fill="#608b4e">      📄 useUtils.test.ts ●</text>
  <text x="84" y="201" font-family="sans-serif" font-size="10" fill="#888">    📂 main</text>
  <text x="96" y="219" font-family="sans-serif" font-size="10" fill="#608b4e">      📄 naive-ui.test.ts ●</text>
  <text x="60" y="240" font-family="sans-serif" font-size="10" fill="#4fc1ff">▸ 📄 security_report.md</text>

  <!-- Editor Area -->
  <rect x="228" y="32" width="472" height="568" fill="#1e1e1e"/>
  <rect x="228" y="32" width="472" height="28" fill="#2d2d2d"/>
  <rect x="232" y="36" width="160" height="24" rx="3" fill="#1e1e1e"/>
  <text x="312" y="50" font-family="sans-serif" font-size="10" fill="#ccc" text-anchor="middle">security_report.md</text>

  <!-- Security Report Content -->
  <text x="240" y="80" font-family="'Noto Sans CJK SC', sans-serif" font-size="14" fill="#f8fafc" font-weight="bold">安全审查报告</text>
  <text x="240" y="98" font-family="sans-serif" font-size="10" fill="#64748b">Security Best Practices Review</text>

  <rect x="240" y="110" width="440" height="30" rx="4" fill="#22c55e" fill-opacity="0.1"/>
  <text x="250" y="130" font-family="sans-serif" font-size="11" fill="#22c55e">✓ 总体评估: 无 Critical/High 风险</text>

  <!-- Checklist items -->
  <text x="240" y="160" font-family="'Noto Sans CJK SC', sans-serif" font-size="11" fill="#f8fafc" font-weight="bold">审查项</text>

  <rect x="240" y="170" width="440" height="24" rx="4" fill="#2d2d2d"/>
  <text x="250" y="186" font-family="sans-serif" font-size="10" fill="#22c55e">✓</text>
  <text x="265" y="186" font-family="'Noto Sans CJK SC', sans-serif" font-size="10" fill="#ccc">CSP 策略未变更</text>
  <text x="620" y="186" font-family="sans-serif" font-size="9" fill="#22c55e" text-anchor="end">PASS</text>

  <rect x="240" y="198" width="440" height="24" rx="4" fill="#2d2d2d"/>
  <text x="250" y="214" font-family="sans-serif" font-size="10" fill="#22c55e">✓</text>
  <text x="265" y="214" font-family="'Noto Sans CJK SC', sans-serif" font-size="10" fill="#ccc">无硬编码 API key/token</text>
  <text x="620" y="214" font-family="sans-serif" font-size="9" fill="#22c55e" text-anchor="end">PASS</text>

  <rect x="240" y="226" width="440" height="24" rx="4" fill="#2d2d2d"/>
  <text x="250" y="242" font-family="sans-serif" font-size="10" fill="#22c55e">✓</text>
  <text x="265" y="242" font-family="'Noto Sans CJK SC', sans-serif" font-size="10" fill="#ccc">AES-256 加密未受影响</text>
  <text x="620" y="242" font-family="sans-serif" font-size="9" fill="#22c55e" text-anchor="end">PASS</text>

  <rect x="240" y="254" width="440" height="24" rx="4" fill="#2d2d2d"/>
  <text x="250" y="270" font-family="sans-serif" font-size="10" fill="#22c55e">✓</text>
  <text x="265" y="270" font-family="'Noto Sans CJK SC', sans-serif" font-size="10" fill="#ccc">fundebug 动态加载无安全隐患</text>
  <text x="620" y="270" font-family="sans-serif" font-size="9" fill="#22c55e" text-anchor="end">PASS</text>

  <rect x="240" y="282" width="440" height="24" rx="4" fill="#2d2d2d"/>
  <text x="250" y="298" font-family="sans-serif" font-size="10" fill="#22c55e">✓</text>
  <text x="265" y="298" font-family="'Noto Sans CJK SC', sans-serif" font-size="10" fill="#ccc">contextBridge 隔离未受影响</text>
  <text x="620" y="298" font-family="sans-serif" font-size="9" fill="#22c55e" text-anchor="end">PASS</text>

  <!-- Test results section -->
  <text x="240" y="330" font-family="'Noto Sans CJK SC', sans-serif" font-size="14" fill="#f8fafc" font-weight="bold">测试结果</text>

  <rect x="240" y="340" width="440" height="120" rx="6" fill="#0c0c0c" stroke="#333" stroke-width="1"/>
  <text x="250" y="358" font-family="'Courier New', monospace" font-size="9" fill="#22c55e">$ pnpm test</text>
  <text x="250" y="373" font-family="'Courier New', monospace" font-size="9" fill="#888"> ✓ tests/unit/utils/format.test.ts (9 tests)</text>
  <text x="250" y="386" font-family="'Courier New', monospace" font-size="9" fill="#888"> ✓ tests/unit/utils/fundebug.test.ts (2 tests)</text>
  <text x="250" y="399" font-family="'Courier New', monospace" font-size="9" fill="#888"> ✓ tests/unit/composables/useUtils.test.ts (11 tests)</text>
  <text x="250" y="412" font-family="'Courier New', monospace" font-size="9" fill="#888"> ✓ tests/unit/main.naive-ui.test.ts (2 tests)</text>
  <text x="250" y="425" font-family="'Courier New', monospace" font-size="9" fill="#888"> ✓ ... (40 more files)</text>
  <text x="250" y="448" font-family="'Courier New', monospace" font-size="11" fill="#22c55e" font-weight="bold"> Test Files  44 passed (44)</text>
  <text x="250" y="462" font-family="'Courier New', monospace" font-size="11" fill="#22c55e" font-weight="bold">      Tests  750 passed (750)</text>

  <!-- TypeScript check -->
  <rect x="240" y="475" width="440" height="30" rx="4" fill="#3b82f6" fill-opacity="0.1"/>
  <text x="250" y="495" font-family="sans-serif" font-size="10" fill="#3b82f6">✓ TypeScript 类型检查通过 (0 errors)</text>

  <!-- Chat Panel -->
  <rect x="700" y="32" width="300" height="568" fill="#2d2d30"/>
  <rect x="700" y="32" width="300" height="36" fill="#3c3c3c"/>
  <text x="710" y="54" font-family="sans-serif" font-size="11" fill="#ccc">🤖 TRAE AI Assistant</text>

  <rect x="710" y="78" width="280" height="60" rx="8" fill="#3c3c3c"/>
  <text x="720" y="95" font-family="'Noto Sans CJK SC', sans-serif" font-size="10" fill="#4fc1ff">用户:</text>
  <text x="720" y="110" font-family="'Noto Sans CJK SC', sans-serif" font-size="9" fill="#ccc">运行安全审查和全部测试</text>
  <text x="720" y="125" font-family="'Noto Sans CJK SC', sans-serif" font-size="9" fill="#ccc">确认重构没有引入问题</text>

  <rect x="710" y="148" width="280" height="120" rx="8" fill="#0e639c" fill-opacity="0.2"/>
  <text x="720" y="165" font-family="'Noto Sans CJK SC', sans-serif" font-size="10" fill="#22c55e">TRAE:</text>
  <text x="720" y="180" font-family="'Noto Sans CJK SC', sans-serif" font-size="9" fill="#ccc">执行 security-best-practices:</text>
  <text x="720" y="195" font-family="sans-serif" font-size="9" fill="#22c55e">✓ CSP 策略正常</text>
  <text x="720" y="210" font-family="sans-serif" font-size="9" fill="#22c55e">✓ 数据加密未受影响</text>
  <text x="720" y="225" font-family="sans-serif" font-size="9" fill="#22c55e">✓ contextBridge 隔离正常</text>
  <text x="720" y="240" font-family="sans-serif" font-size="9" fill="#22c55e">✓ 无硬编码凭证</text>
  <text x="720" y="255" font-family="'Noto Sans CJK SC', sans-serif" font-size="9" fill="#ccc">0 个 Critical/High 漏洞</text>

  <rect x="710" y="278" width="280" height="80" rx="8" fill="#0e639c" fill-opacity="0.2"/>
  <text x="720" y="295" font-family="'Noto Sans CJK SC', sans-serif" font-size="10" fill="#22c55e">TRAE:</text>
  <text x="720" y="310" font-family="'Noto Sans CJK SC', sans-serif" font-size="9" fill="#ccc">运行全部测试:</text>
  <text x="720" y="325" font-family="'Courier New', monospace" font-size="9" fill="#22c55e">750/750 passed</text>
  <text x="720" y="340" font-family="'Courier New', monospace" font-size="9" fill="#22c55e">44 test files</text>
  <text x="720" y="352" font-family="'Noto Sans CJK SC', sans-serif" font-size="9" fill="#ccc">TypeScript: 0 errors</text>

  <!-- Final summary -->
  <rect x="710" y="370" width="280" height="100" rx="8" fill="#1e1e1e" stroke="#22c55e" stroke-width="1"/>
  <text x="850" y="390" font-family="'Noto Sans CJK SC', sans-serif" font-size="12" fill="#22c55e" text-anchor="middle" font-weight="bold">✓ 重构完成</text>
  <text x="720" y="408" font-family="sans-serif" font-size="9" fill="#888">优化项:</text>
  <text x="720" y="422" font-family="sans-serif" font-size="9" fill="#ccc">• naive-ui 按需导入</text>
  <text x="720" y="436" font-family="sans-serif" font-size="9" fill="#ccc">• fundebug 动态加载</text>
  <text x="720" y="450" font-family="sans-serif" font-size="9" fill="#ccc">• formatTime 合并</text>
  <text x="720" y="464" font-family="sans-serif" font-size="9" fill="#ccc">• useStorage 去重</text>

  <!-- Session IDs -->
  <rect x="710" y="485" width="280" height="50" rx="6" fill="#1e1e1e" stroke="#475569" stroke-width="1"/>
  <text x="720" y="500" font-family="sans-serif" font-size="9" fill="#64748b">Session IDs:</text>
  <text x="720" y="515" font-family="'Courier New', monospace" font-size="8" fill="#3b82f6">6a491f60d7f5485f1c7c5e8f</text>
  <text x="720" y="528" font-family="'Courier New', monospace" font-size="8" fill="#8b5cf6">6a48c021d7f5485f1c7c5a4d</text>

  <!-- Status bar -->
  <rect x="0" y="580" width="1000" height="20" fill="#007acc"/>
  <text x="10" y="593" font-family="sans-serif" font-size="9" fill="#fff">main</text>
  <text x="700" y="593" font-family="sans-serif" font-size="9" fill="#fff">750 tests passing | 0 vulnerabilities</text>
</svg>
