<svg xmlns="http://www.w3.org/2000/svg" viewBox="0 0 360 260">
<style>
.line{fill:none;stroke:#101415;stroke-width:5.2;stroke-linecap:round;stroke-linejoin:round}.thin{fill:none;stroke:#101415;stroke-width:3.2;stroke-linecap:round;stroke-linejoin:round}.fill-dark{fill:#101415}.soft{fill:#fff}.accent{fill:#25D7D9}.muted{fill:#F6F6F3}.spark{fill:#E8FA4D}.orange{stroke:#FF7639}.stamp{fill:none;stroke:#CBD3D3;stroke-width:2;stroke-linecap:round;stroke-dasharray:5 6}
</style>
<rect width="360" height="260" fill="white"/><path class="line" d="M80 52l210 29-25 153L55 205z"/><path class="thin" d="M222 87l50 8-7 39-50-8zM229 101c11-10 29-6 33 8M227 117c16-8 27-4 34 6M86 184c33 11 84 15 136 9"/><path class="line" d="M115 104c-23-27-51-12-43 16 6 22 29 38 53 39"/><path class="line" d="M222 107c18-25 49-11 44 16-4 22-28 38-53 39"/><ellipse class="line" cx="170" cy="134" rx="52" ry="42"/><circle cx="156" cy="132" r="3"/><circle cx="183" cy="132" r="3"/><path class="thin" d="M164 143c5 6 12 6 17 0"/><path class="fill-dark" d="M146 171h48v39h-48z"/><path class="line" d="M125 172v43m73-43v43"/></svg>