<svg xmlns="http://www.w3.org/2000/svg" viewBox="0 0 480 200" width="480" height="200">
  <defs>
    <linearGradient id="heroBg" x1="0%" y1="0%" x2="100%" y2="100%">
      <stop offset="0%" style="stop-color:#FEF3C7"/>
      <stop offset="50%" style="stop-color:#FED7AA"/>
      <stop offset="100%" style="stop-color:#FECACA"/>
    </linearGradient>
    <radialGradient id="glow1" cx="20%" cy="30%">
      <stop offset="0%" style="stop-color:#F97316;stop-opacity:0.3"/>
      <stop offset="100%" style="stop-color:#F97316;stop-opacity:0"/>
    </radialGradient>
    <radialGradient id="glow2" cx="80%" cy="70%">
      <stop offset="0%" style="stop-color:#EF4444;stop-opacity:0.25"/>
      <stop offset="100%" style="stop-color:#EF4444;stop-opacity:0"/>
    </radialGradient>
  </defs>

  <rect width="480" height="200" fill="url(#heroBg)"/>
  <rect width="480" height="200" fill="url(#glow1)"/>
  <rect width="480" height="200" fill="url(#glow2)"/>

  <g opacity="0.12">
    <circle cx="60" cy="40" r="35" fill="#F97316"/>
    <circle cx="420" cy="160" r="45" fill="#EF4444"/>
    <circle cx="400" cy="35" r="25" fill="#F59E0B"/>
    <circle cx="80" cy="170" r="28" fill="#EA580C"/>
  </g>

  <g opacity="0.08" stroke="#92400E" stroke-width="2" fill="none" stroke-linecap="round">
    <path d="M120 60 Q135 50 150 62 Q163 55 175 65"/>
    <path d="M300 140 Q315 130 330 142 Q343 135 355 145"/>
    <circle cx="240" cy="100" r="18"/>
    <circle cx="235" cy="95" r="5" fill="#92400E"/>
  </g>

  <g opacity="0.06">
    <rect x="200" y="45" width="8" height="8" rx="2" fill="#78350F" transform="rotate(15 204 49)"/>
    <rect x="270" y="150" width="10" height="10" rx="2" fill="#78350F" transform="rotate(-20 275 155)"/>
    <rect x="55" cy="110" width="6" height="6" rx="1.5" fill="#92400E" transform="rotate(30 58 113)"/>
    <rect x="420" cy="80" width="7" height="7" rx="1.5" fill="#92400E" transform="rotate(-15 423 83)"/>
  </g>
</svg>