<svg width="32" height="32" viewBox="0 0 32 32" fill="none" xmlns="http://www.w3.org/2000/svg">
  <rect width="32" height="32" rx="7" fill="#F5EFE0"/>
  <circle cx="16" cy="16" r="11" fill="none" stroke="#2D4A3E" stroke-width="1.6"/>
  <path d="M16 7.5c-2.8 2.4-4.2 5-4.2 7.8 0 3 1.9 5.2 4.2 5.2s4.2-2.2 4.2-5.2c0-2.8-1.4-5.4-4.2-7.8z" fill="#5A7D5A"/>
  <path d="M16 9.2c-1.9 1.8-2.9 3.8-2.9 6.1 0 2.2 1.3 3.9 2.9 3.9s2.9-1.7 2.9-3.9c0-2.3-1-4.3-2.9-6.1z" fill="#2D4A3E"/>
  <path d="M16 20.5v4.2" stroke="#2D4A3E" stroke-width="1.4" stroke-linecap="round"/>
  <path d="M13.8 24.7h4.4" stroke="#B8763E" stroke-width="1.4" stroke-linecap="round"/>
</svg>
