<svg xmlns="http://www.w3.org/2000/svg" viewBox="0 0 120 120">
  <defs>
    <linearGradient id="bgGradLeopard" x1="0%" y1="0%" x2="0%" y2="100%">
      <stop offset="0%" style="stop-color:#f4e4c1;stop-opacity:1" />
      <stop offset="100%" style="stop-color:#d4a574;stop-opacity:1" />
    </linearGradient>
  </defs>
  <circle cx="60" cy="60" r="55" fill="url(#bgGradLeopard)" stroke="#8b6914" stroke-width="2"/>
  <circle cx="60" cy="60" r="48" fill="none" stroke="#8b6914" stroke-width="1" stroke-dasharray="3,2"/>
  
  <!-- 头部 -->
  <ellipse cx="60" cy="55" rx="28" ry="24" fill="#d4a05c" stroke="#8b4513" stroke-width="2"/>
  
  <!-- 豹纹斑点 -->
  <g fill="#2a1810">
    <circle cx="42" cy="42" r="2.5"/>
    <circle cx="48" cy="38" r="2"/>
    <circle cx="40" cy="50" r="2.5"/>
    <circle cx="38" cy="58" r="2"/>
    <circle cx="78" cy="42" r="2.5"/>
    <circle cx="72" cy="38" r="2"/>
    <circle cx="80" cy="50" r="2.5"/>
    <circle cx="82" cy="58" r="2"/>
    <circle cx="45" cy="68" r="2"/>
    <circle cx="75" cy="68" r="2"/>
    <circle cx="60" cy="35" r="2"/>
    <circle cx="55" cy="40" r="1.8"/>
    <circle cx="65" cy="40" r="1.8"/>
    <circle cx="50" cy="75" r="2"/>
    <circle cx="70" cy="75" r="2"/>
  </g>
  
  <!-- 耳朵 -->
  <path d="M40 38 L32 25 L48 32 Z" fill="#d4a05c" stroke="#8b4513" stroke-width="1.5"/>
  <path d="M80 38 L88 25 L72 32 Z" fill="#d4a05c" stroke="#8b4513" stroke-width="1.5"/>
  <path d="M40 35 L36 28 L44 32 Z" fill="#e8b874"/>
  <path d="M80 35 L84 28 L76 32 Z" fill="#e8b874"/>
  
  <!-- 脸部中心区域（较浅） -->
  <ellipse cx="60" cy="58" rx="18" ry="16" fill="#e8b874"/>
  
  <!-- 眼睛 -->
  <ellipse cx="52" cy="52" rx="4" ry="5" fill="#fff"/>
  <ellipse cx="68" cy="52" rx="4" ry="5" fill="#fff"/>
  <ellipse cx="52" cy="53" rx="2.5" ry="3.5" fill="#8b6914"/>
  <ellipse cx="68" cy="53" rx="2.5" ry="3.5" fill="#8b6914"/>
  <ellipse cx="52" cy="53" rx="1" ry="2" fill="#000"/>
  <ellipse cx="68" cy="53" rx="1" ry="2" fill="#000"/>
  
  <!-- 鼻子 -->
  <path d="M56 62 Q60 60 Q64 62 Q60 66 Q56 62 Z" fill="#5c3a1a"/>
  
  <!-- 嘴 -->
  <path d="M60 66 L60 70" stroke="#5c3a1a" stroke-width="1.5"/>
  <path d="M60 70 Q55 74 Q52 72" fill="none" stroke="#5c3a1a" stroke-width="1.2"/>
  <path d="M60 70 Q65 74 Q68 72" fill="none" stroke="#5c3a1a" stroke-width="1.2"/>
  
  <!-- 胡须 -->
  <g stroke="#8b6914" stroke-width="0.6" opacity="0.5">
    <line x1="50" y1="67" x2="40" y2="65"/>
    <line x1="50" y1="69" x2="40" y2="71"/>
    <line x1="70" y1="67" x2="80" y2="65"/>
    <line x1="70" y1="69" x2="80" y2="71"/>
  </g>
  
  <!-- 等级标识 -->
  <circle cx="60" cy="100" r="8" fill="#d4a574" stroke="#8b6914" stroke-width="1.5"/>
  <text x="60" y="104" text-anchor="middle" font-family="serif" font-size="10" font-weight="bold" fill="#5c4a3a">豹</text>
</svg>
